<mxfile host="app.diagrams.net" modified="2023-05-16T00:29:51.668Z" agent="Mozilla/5.0 (Windows NT 10.0; Win64; x64) AppleWebKit/537.36 (KHTML, like Gecko) Chrome/113.0.0.0 Safari/537.36" etag="dk6BzjSE6AfIzb5t3Oqc" version="21.3.2" type="device">
  <diagram id="R2lEEEUBdFMjLlhIrx00" name="Page-1">
    <mxGraphModel dx="681" dy="440" grid="1" gridSize="10" guides="1" tooltips="1" connect="1" arrows="1" fold="1" page="1" pageScale="1" pageWidth="850" pageHeight="1100" math="0" shadow="0" extFonts="Permanent Marker^https://fonts.googleapis.com/css?family=Permanent+Marker">
      <root>
        <mxCell id="0" />
        <mxCell id="1" parent="0" />
        <mxCell id="ElDbvMlZfN6DCkuyR8b4-1" value="curso" style="swimlane;fontStyle=0;childLayout=stackLayout;horizontal=1;startSize=26;fillColor=none;horizontalStack=0;resizeParent=1;resizeParentMax=0;resizeLast=0;collapsible=1;marginBottom=0;html=1;" vertex="1" parent="1">
          <mxGeometry x="140" y="240" width="140" height="52" as="geometry" />
        </mxCell>
        <mxCell id="ElDbvMlZfN6DCkuyR8b4-9" style="edgeStyle=orthogonalEdgeStyle;rounded=0;orthogonalLoop=1;jettySize=auto;html=1;entryX=1;entryY=0.5;entryDx=0;entryDy=0;exitX=0.25;exitY=0;exitDx=0;exitDy=0;" edge="1" parent="1" source="ElDbvMlZfN6DCkuyR8b4-5" target="ElDbvMlZfN6DCkuyR8b4-1">
          <mxGeometry relative="1" as="geometry" />
        </mxCell>
        <mxCell id="ElDbvMlZfN6DCkuyR8b4-10" style="edgeStyle=orthogonalEdgeStyle;rounded=0;orthogonalLoop=1;jettySize=auto;html=1;exitX=0.25;exitY=1;exitDx=0;exitDy=0;entryX=1;entryY=0.5;entryDx=0;entryDy=0;" edge="1" parent="1" source="ElDbvMlZfN6DCkuyR8b4-5" target="ElDbvMlZfN6DCkuyR8b4-8">
          <mxGeometry relative="1" as="geometry" />
        </mxCell>
        <mxCell id="ElDbvMlZfN6DCkuyR8b4-11" style="edgeStyle=orthogonalEdgeStyle;rounded=0;orthogonalLoop=1;jettySize=auto;html=1;exitX=0.75;exitY=0;exitDx=0;exitDy=0;entryX=0;entryY=0.5;entryDx=0;entryDy=0;" edge="1" parent="1" source="ElDbvMlZfN6DCkuyR8b4-5" target="ElDbvMlZfN6DCkuyR8b4-6">
          <mxGeometry relative="1" as="geometry" />
        </mxCell>
        <mxCell id="ElDbvMlZfN6DCkuyR8b4-12" style="edgeStyle=orthogonalEdgeStyle;rounded=0;orthogonalLoop=1;jettySize=auto;html=1;exitX=0.75;exitY=1;exitDx=0;exitDy=0;entryX=0;entryY=0.5;entryDx=0;entryDy=0;" edge="1" parent="1" source="ElDbvMlZfN6DCkuyR8b4-5" target="ElDbvMlZfN6DCkuyR8b4-7">
          <mxGeometry relative="1" as="geometry" />
        </mxCell>
        <mxCell id="ElDbvMlZfN6DCkuyR8b4-5" value="resultado_professor" style="swimlane;fontStyle=0;childLayout=stackLayout;horizontal=1;startSize=30;fillColor=none;horizontalStack=0;resizeParent=1;resizeParentMax=0;resizeLast=0;collapsible=1;marginBottom=0;html=1;" vertex="1" parent="1">
          <mxGeometry x="330" y="340" width="140" height="52" as="geometry" />
        </mxCell>
        <mxCell id="ElDbvMlZfN6DCkuyR8b4-6" value="disciplina" style="swimlane;fontStyle=0;childLayout=stackLayout;horizontal=1;startSize=26;fillColor=none;horizontalStack=0;resizeParent=1;resizeParentMax=0;resizeLast=0;collapsible=1;marginBottom=0;html=1;" vertex="1" parent="1">
          <mxGeometry x="540" y="240" width="140" height="52" as="geometry" />
        </mxCell>
        <mxCell id="ElDbvMlZfN6DCkuyR8b4-7" value="professor" style="swimlane;fontStyle=0;childLayout=stackLayout;horizontal=1;startSize=26;fillColor=none;horizontalStack=0;resizeParent=1;resizeParentMax=0;resizeLast=0;collapsible=1;marginBottom=0;html=1;" vertex="1" parent="1">
          <mxGeometry x="540" y="460" width="140" height="52" as="geometry" />
        </mxCell>
        <mxCell id="ElDbvMlZfN6DCkuyR8b4-8" value="tempo" style="swimlane;fontStyle=0;childLayout=stackLayout;horizontal=1;startSize=26;fillColor=none;horizontalStack=0;resizeParent=1;resizeParentMax=0;resizeLast=0;collapsible=1;marginBottom=0;html=1;" vertex="1" parent="1">
          <mxGeometry x="140" y="460" width="140" height="52" as="geometry" />
        </mxCell>
        <mxCell id="ElDbvMlZfN6DCkuyR8b4-14" value="curso" style="swimlane;fontStyle=0;childLayout=stackLayout;horizontal=1;startSize=26;fillColor=none;horizontalStack=0;resizeParent=1;resizeParentMax=0;resizeLast=0;collapsible=1;marginBottom=0;html=1;" vertex="1" parent="1">
          <mxGeometry x="330" y="650" width="140" height="52" as="geometry" />
        </mxCell>
        <mxCell id="ElDbvMlZfN6DCkuyR8b4-15" style="edgeStyle=orthogonalEdgeStyle;rounded=0;orthogonalLoop=1;jettySize=auto;html=1;entryX=0.5;entryY=1;entryDx=0;entryDy=0;exitX=0.5;exitY=0;exitDx=0;exitDy=0;" edge="1" parent="1" source="ElDbvMlZfN6DCkuyR8b4-19" target="ElDbvMlZfN6DCkuyR8b4-14">
          <mxGeometry relative="1" as="geometry" />
        </mxCell>
        <mxCell id="ElDbvMlZfN6DCkuyR8b4-16" style="edgeStyle=orthogonalEdgeStyle;rounded=0;orthogonalLoop=1;jettySize=auto;html=1;exitX=0.25;exitY=1;exitDx=0;exitDy=0;entryX=1;entryY=0.5;entryDx=0;entryDy=0;" edge="1" parent="1" source="ElDbvMlZfN6DCkuyR8b4-19" target="ElDbvMlZfN6DCkuyR8b4-22">
          <mxGeometry relative="1" as="geometry" />
        </mxCell>
        <mxCell id="ElDbvMlZfN6DCkuyR8b4-18" style="edgeStyle=orthogonalEdgeStyle;rounded=0;orthogonalLoop=1;jettySize=auto;html=1;exitX=0.75;exitY=1;exitDx=0;exitDy=0;entryX=0;entryY=0.5;entryDx=0;entryDy=0;" edge="1" parent="1" source="ElDbvMlZfN6DCkuyR8b4-19" target="ElDbvMlZfN6DCkuyR8b4-21">
          <mxGeometry relative="1" as="geometry" />
        </mxCell>
        <mxCell id="ElDbvMlZfN6DCkuyR8b4-19" value="resultado_curso" style="swimlane;fontStyle=0;childLayout=stackLayout;horizontal=1;startSize=30;fillColor=none;horizontalStack=0;resizeParent=1;resizeParentMax=0;resizeLast=0;collapsible=1;marginBottom=0;html=1;" vertex="1" parent="1">
          <mxGeometry x="330" y="750" width="140" height="52" as="geometry" />
        </mxCell>
        <mxCell id="ElDbvMlZfN6DCkuyR8b4-21" value="professor" style="swimlane;fontStyle=0;childLayout=stackLayout;horizontal=1;startSize=26;fillColor=none;horizontalStack=0;resizeParent=1;resizeParentMax=0;resizeLast=0;collapsible=1;marginBottom=0;html=1;" vertex="1" parent="1">
          <mxGeometry x="540" y="870" width="140" height="52" as="geometry" />
        </mxCell>
        <mxCell id="ElDbvMlZfN6DCkuyR8b4-22" value="tempo" style="swimlane;fontStyle=0;childLayout=stackLayout;horizontal=1;startSize=26;fillColor=none;horizontalStack=0;resizeParent=1;resizeParentMax=0;resizeLast=0;collapsible=1;marginBottom=0;html=1;" vertex="1" parent="1">
          <mxGeometry x="140" y="870" width="140" height="52" as="geometry" />
        </mxCell>
        <mxCell id="ElDbvMlZfN6DCkuyR8b4-27" value="curso" style="swimlane;fontStyle=0;childLayout=stackLayout;horizontal=1;startSize=26;fillColor=none;horizontalStack=0;resizeParent=1;resizeParentMax=0;resizeLast=0;collapsible=1;marginBottom=0;html=1;" vertex="1" parent="1">
          <mxGeometry x="909" y="240" width="140" height="52" as="geometry" />
        </mxCell>
        <mxCell id="ElDbvMlZfN6DCkuyR8b4-28" style="edgeStyle=orthogonalEdgeStyle;rounded=0;orthogonalLoop=1;jettySize=auto;html=1;entryX=1;entryY=0.5;entryDx=0;entryDy=0;exitX=0.25;exitY=0;exitDx=0;exitDy=0;" edge="1" parent="1" source="ElDbvMlZfN6DCkuyR8b4-32" target="ElDbvMlZfN6DCkuyR8b4-27">
          <mxGeometry relative="1" as="geometry" />
        </mxCell>
        <mxCell id="ElDbvMlZfN6DCkuyR8b4-29" style="edgeStyle=orthogonalEdgeStyle;rounded=0;orthogonalLoop=1;jettySize=auto;html=1;exitX=0.25;exitY=1;exitDx=0;exitDy=0;entryX=1;entryY=0.5;entryDx=0;entryDy=0;" edge="1" parent="1" source="ElDbvMlZfN6DCkuyR8b4-32" target="ElDbvMlZfN6DCkuyR8b4-35">
          <mxGeometry relative="1" as="geometry" />
        </mxCell>
        <mxCell id="ElDbvMlZfN6DCkuyR8b4-30" style="edgeStyle=orthogonalEdgeStyle;rounded=0;orthogonalLoop=1;jettySize=auto;html=1;exitX=0.75;exitY=0;exitDx=0;exitDy=0;entryX=0;entryY=0.5;entryDx=0;entryDy=0;" edge="1" parent="1" source="ElDbvMlZfN6DCkuyR8b4-32" target="ElDbvMlZfN6DCkuyR8b4-33">
          <mxGeometry relative="1" as="geometry" />
        </mxCell>
        <mxCell id="ElDbvMlZfN6DCkuyR8b4-31" style="edgeStyle=orthogonalEdgeStyle;rounded=0;orthogonalLoop=1;jettySize=auto;html=1;exitX=0.75;exitY=1;exitDx=0;exitDy=0;entryX=0;entryY=0.5;entryDx=0;entryDy=0;" edge="1" parent="1" source="ElDbvMlZfN6DCkuyR8b4-32" target="ElDbvMlZfN6DCkuyR8b4-34">
          <mxGeometry relative="1" as="geometry" />
        </mxCell>
        <mxCell id="ElDbvMlZfN6DCkuyR8b4-32" value="qtd_respostas" style="swimlane;fontStyle=0;childLayout=stackLayout;horizontal=1;startSize=30;fillColor=none;horizontalStack=0;resizeParent=1;resizeParentMax=0;resizeLast=0;collapsible=1;marginBottom=0;html=1;" vertex="1" parent="1">
          <mxGeometry x="1099" y="340" width="140" height="52" as="geometry" />
        </mxCell>
        <mxCell id="ElDbvMlZfN6DCkuyR8b4-33" value="disciplina" style="swimlane;fontStyle=0;childLayout=stackLayout;horizontal=1;startSize=26;fillColor=none;horizontalStack=0;resizeParent=1;resizeParentMax=0;resizeLast=0;collapsible=1;marginBottom=0;html=1;" vertex="1" parent="1">
          <mxGeometry x="1309" y="240" width="140" height="52" as="geometry" />
        </mxCell>
        <mxCell id="ElDbvMlZfN6DCkuyR8b4-34" value="professor" style="swimlane;fontStyle=0;childLayout=stackLayout;horizontal=1;startSize=26;fillColor=none;horizontalStack=0;resizeParent=1;resizeParentMax=0;resizeLast=0;collapsible=1;marginBottom=0;html=1;" vertex="1" parent="1">
          <mxGeometry x="1309" y="460" width="140" height="52" as="geometry" />
        </mxCell>
        <mxCell id="ElDbvMlZfN6DCkuyR8b4-35" value="tempo" style="swimlane;fontStyle=0;childLayout=stackLayout;horizontal=1;startSize=26;fillColor=none;horizontalStack=0;resizeParent=1;resizeParentMax=0;resizeLast=0;collapsible=1;marginBottom=0;html=1;" vertex="1" parent="1">
          <mxGeometry x="909" y="460" width="140" height="52" as="geometry" />
        </mxCell>
      </root>
    </mxGraphModel>
  </diagram>
</mxfile>
